<svg style="display:none;">
<symbol id="icon-microsoft" xmlns="http://www.w3.org/2000/svg" fill="currentColor" class="bi bi-microsoft" viewBox="0 0 16 16">
  <path d="M7.462 0H0v7.19h7.462V0zM16 0H8.538v7.19H16V0zM7.462 8.211H0V16h7.462V8.211zm8.538 0H8.538V16H16V8.211z"/>
</symbol>

<symbol id="icon-gear" xmlns="http://www.w3.org/2000/svg" fill="currentColor" class="bi bi-gear-fill" viewBox="0 0 16 16">
  <path d="M9.405 1.05c-.413-1.4-2.397-1.4-2.81 0l-.1.34a1.464 1.464 0 0 1-2.105.872l-.31-.17c-1.283-.698-2.686.705-1.987 1.987l.169.311c.446.82.023 1.841-.872 2.105l-.34.1c-1.4.413-1.4 2.397 0 2.81l.34.1a1.464 1.464 0 0 1 .872 2.105l-.17.31c-.698 1.283.705 2.686 1.987 1.987l.311-.169a1.464 1.464 0 0 1 2.105.872l.1.34c.413 1.4 2.397 1.4 2.81 0l.1-.34a1.464 1.464 0 0 1 2.105-.872l.31.17c1.283.698 2.686-.705 1.987-1.987l-.169-.311a1.464 1.464 0 0 1 .872-2.105l.34-.1c1.4-.413 1.4-2.397 0-2.81l-.34-.1a1.464 1.464 0 0 1-.872-2.105l.17-.31c.698-1.283-.705-2.686-1.987-1.987l-.311.169a1.464 1.464 0 0 1-2.105-.872l-.1-.34zM8 10.93a2.929 2.929 0 1 1 0-5.86 2.929 2.929 0 0 1 0 5.858z"/>
</symbol>

<symbol id="icon-menu-button" xmlns="http://www.w3.org/2000/svg" fill="currentColor" class="bi bi-menu-button" viewBox="0 0 16 16">
  <path d="M0 1.5A1.5 1.5 0 0 1 1.5 0h8A1.5 1.5 0 0 1 11 1.5v2A1.5 1.5 0 0 1 9.5 5h-8A1.5 1.5 0 0 1 0 3.5v-2zM1.5 1a.5.5 0 0 0-.5.5v2a.5.5 0 0 0 .5.5h8a.5.5 0 0 0 .5-.5v-2a.5.5 0 0 0-.5-.5h-8z"/>
  <path d="m7.823 2.823-.396-.396A.25.25 0 0 1 7.604 2h.792a.25.25 0 0 1 .177.427l-.396.396a.25.25 0 0 1-.354 0zM0 8a2 2 0 0 1 2-2h12a2 2 0 0 1 2 2v5a2 2 0 0 1-2 2H2a2 2 0 0 1-2-2V8zm1 3v2a1 1 0 0 0 1 1h12a1 1 0 0 0 1-1v-2H1zm14-1V8a1 1 0 0 0-1-1H2a1 1 0 0 0-1 1v2h14zM2 8.5a.5.5 0 0 1 .5-.5h9a.5.5 0 0 1 0 1h-9a.5.5 0 0 1-.5-.5zm0 4a.5.5 0 0 1 .5-.5h6a.5.5 0 0 1 0 1h-6a.5.5 0 0 1-.5-.5z"/>
</symbol>

<symbol id="icon-menu-button-fill" xmlns="http://www.w3.org/2000/svg" fill="currentColor" class="bi bi-menu-button-fill" viewBox="0 0 16 16">
  <path d="M1.5 0A1.5 1.5 0 0 0 0 1.5v2A1.5 1.5 0 0 0 1.5 5h8A1.5 1.5 0 0 0 11 3.5v-2A1.5 1.5 0 0 0 9.5 0h-8zm5.927 2.427A.25.25 0 0 1 7.604 2h.792a.25.25 0 0 1 .177.427l-.396.396a.25.25 0 0 1-.354 0l-.396-.396zM0 8a2 2 0 0 1 2-2h12a2 2 0 0 1 2 2v5a2 2 0 0 1-2 2H2a2 2 0 0 1-2-2V8zm1 3v2a1 1 0 0 0 1 1h12a1 1 0 0 0 1-1v-2H1zm14-1V8a1 1 0 0 0-1-1H2a1 1 0 0 0-1 1v2h14zM2 8.5a.5.5 0 0 1 .5-.5h9a.5.5 0 0 1 0 1h-9a.5.5 0 0 1-.5-.5zm0 4a.5.5 0 0 1 .5-.5h6a.5.5 0 0 1 0 1h-6a.5.5 0 0 1-.5-.5z"/>
</symbol>

<symbol id="icon-question-circle-fill" xmlns="http://www.w3.org/2000/svg" fill="currentColor" class="bi bi-question-circle-fill" viewBox="0 0 16 16">
  <path d="M16 8A8 8 0 1 1 0 8a8 8 0 0 1 16 0zM5.496 6.033h.825c.138 0 .248-.113.266-.25.09-.656.54-1.134 1.342-1.134.686 0 1.314.343 1.314 1.168 0 .635-.374.927-.965 1.371-.673.489-1.206 1.06-1.168 1.987l.003.217a.25.25 0 0 0 .25.246h.811a.25.25 0 0 0 .25-.25v-.105c0-.718.273-.927 1.01-1.486.609-.463 1.244-.977 1.244-2.056 0-1.511-1.276-2.241-2.673-2.241-1.267 0-2.655.59-2.75 2.286a.237.237 0 0 0 .241.247zm2.325 6.443c.61 0 1.029-.394 1.029-.927 0-.552-.42-.94-1.029-.94-.584 0-1.009.388-1.009.94 0 .533.425.927 1.01.927z"/>
</symbol>

<symbol id="icon-x-square-fill" xmlns="http://www.w3.org/2000/svg" fill="currentColor" class="bi bi-x-square-fill" viewBox="0 0 16 16">
  <path d="M2 0a2 2 0 0 0-2 2v12a2 2 0 0 0 2 2h12a2 2 0 0 0 2-2V2a2 2 0 0 0-2-2H2zm3.354 4.646L8 7.293l2.646-2.647a.5.5 0 0 1 .708.708L8.707 8l2.647 2.646a.5.5 0 0 1-.708.708L8 8.707l-2.646 2.647a.5.5 0 0 1-.708-.708L7.293 8 4.646 5.354a.5.5 0 1 1 .708-.708z"/>
</symbol>

<symbol id="icon-x-octagon" xmlns="http://www.w3.org/2000/svg" fill="currentColor" class="bi bi-x-octagon" viewBox="0 0 16 16">
  <path d="M4.54.146A.5.5 0 0 1 4.893 0h6.214a.5.5 0 0 1 .353.146l4.394 4.394a.5.5 0 0 1 .146.353v6.214a.5.5 0 0 1-.146.353l-4.394 4.394a.5.5 0 0 1-.353.146H4.893a.5.5 0 0 1-.353-.146L.146 11.46A.5.5 0 0 1 0 11.107V4.893a.5.5 0 0 1 .146-.353L4.54.146zM5.1 1 1 5.1v5.8L5.1 15h5.8l4.1-4.1V5.1L10.9 1H5.1z"/>
  <path d="M4.646 4.646a.5.5 0 0 1 .708 0L8 7.293l2.646-2.647a.5.5 0 0 1 .708.708L8.707 8l2.647 2.646a.5.5 0 0 1-.708.708L8 8.707l-2.646 2.647a.5.5 0 0 1-.708-.708L7.293 8 4.646 5.354a.5.5 0 0 1 0-.708z"/>
</symbol>

<symbol id="icon-arrow-right" xmlns="http://www.w3.org/2000/svg" fill="currentColor" class="bi bi-arrow-right" viewBox="0 0 16 16">
  <path fill-rule="evenodd" d="M1 8a.5.5 0 0 1 .5-.5h11.793l-3.147-3.146a.5.5 0 0 1 .708-.708l4 4a.5.5 0 0 1 0 .708l-4 4a.5.5 0 0 1-.708-.708L13.293 8.5H1.5A.5.5 0 0 1 1 8z"/>
</symbol>

<symbol id="icon-arrow-right-path" version="1.1" viewBox="0 0 16 16" xmlns="http://www.w3.org/2000/svg">
  <g transform="translate(0 -292.77)">
    <path d="m1.0679 299.72 10.961-0.018-1.1019-2.9771 0.6496 8e-3 3.4664 4.8891-3.4178 5.3182-0.70063 5e-3 1.094-3.1808-10.937 8e-3z" stroke-width="3.5967"/>
  </g>
</symbol>

<symbol id="icon-go" version="1.1" viewBox="0 0 16 16" xmlns="http://www.w3.org/2000/svg">
 <g transform="translate(0 -292.77)">
<text transform="scale(.94403 1.0593)" x="0.16817249" y="287.96558" fill="#000000" font-size="10.038px" stroke-width=".83648" xml:space="preserve">
14    <tspan x="0.16817249" y="287.96558" font-family="sans-serif" font-size="10.038px" font-weight="bold" stroke-width=".83648" style="font-variant-caps:normal;font-variant-east-asian:normal;font-variant-ligatures:normal;font-variant-numeric:normal">GO</tspan></text>
 </g>
</symbol>

<symbol id="icon-arrow-left" viewBox="0 0 24 24" xmlns="http://www.w3.org/2000/svg" fill="none">^
  <path stroke="#000000" stroke-linecap="round" stroke-linejoin="round" stroke-width="2" d="M20 12H4m0 0l6-6m-6 6l6 6"/>^
</symbol>

<symbol id="icon-layers" xmlns="http://www.w3.org/2000/svg" fill="currentColor" class="bi bi-layers" viewBox="0 0 16 16">
  <path d="M8.235 1.559a.5.5 0 0 0-.47 0l-7.5 4a.5.5 0 0 0 0 .882L3.188 8 .264 9.559a.5.5 0 0 0 0 .882l7.5 4a.5.5 0 0 0 .47 0l7.5-4a.5.5 0 0 0 0-.882L12.813 8l2.922-1.559a.5.5 0 0 0 0-.882l-7.5-4zm3.515 7.008L14.438 10 8 13.433 1.562 10 4.25 8.567l3.515 1.874a.5.5 0 0 0 .47 0l3.515-1.874zM8 9.433 1.562 6 8 2.567 14.438 6 8 9.433z"/>
</symbol>

<symbol id="icon-layers-half" xmlns="http://www.w3.org/2000/svg" fill="currentColor" class="bi bi-layers-half" viewBox="0 0 16 16">
  <path d="M8.235 1.559a.5.5 0 0 0-.47 0l-7.5 4a.5.5 0 0 0 0 .882L3.188 8 .264 9.559a.5.5 0 0 0 0 .882l7.5 4a.5.5 0 0 0 .47 0l7.5-4a.5.5 0 0 0 0-.882L12.813 8l2.922-1.559a.5.5 0 0 0 0-.882l-7.5-4zM8 9.433 1.562 6 8 2.567 14.438 6 8 9.433z"/>
</symbol>

<symbol id="icon-toggle2-on" xmlns="http://www.w3.org/2000/svg" fill="currentColor" class="bi bi-toggle2-on" viewBox="0 0 16 16">
  <path d="M7 5H3a3 3 0 0 0 0 6h4a4.995 4.995 0 0 1-.584-1H3a2 2 0 1 1 0-4h3.416c.156-.357.352-.692.584-1z"/>
  <path d="M16 8A5 5 0 1 1 6 8a5 5 0 0 1 10 0z"/>
</symbol>

</svg>
